{"asset":{"version":"2.0","generator":"gltfpack 1.1"},"extensionsUsed":["KHR_mesh_quantization"],"extensionsRequired":["KHR_mesh_quantization"],"buffers":[{"uri":"caster.bin","byteLength":161952}],"bufferViews":[{"buffer":0,"byteOffset":0,"byteLength":31256,"byteStride":4,"target":34962},{"buffer":0,"byteOffset":31256,"byteLength":62512,"byteStride":8,"target":34962},{"buffer":0,"byteOffset":93768,"byteLength":68184,"target":34963}],"accessors":[{"bufferView":0,"byteOffset":0,"componentType":5120,"count":2796,"type":"VEC3","normalized":true},{"bufferView":1,"byteOffset":0,"componentType":5123,"count":2796,"type":"VEC3","min":[1068,1952,1578],"max":[10972,14802,13303]},{"bufferView":2,"byteOffset":0,"componentType":5123,"count":10506,"type":"SCALAR"},{"bufferView":0,"byteOffset":11184,"componentType":5120,"count":136,"type":"VEC3","normalized":true},{"bufferView":1,"byteOffset":22368,"componentType":5123,"count":136,"type":"VEC3","min":[1900,1900,8450],"max":[10140,10140,9621]},{"bufferView":2,"byteOffset":21012,"componentType":5123,"count":264,"type":"SCALAR"},{"bufferView":0,"byteOffset":11728,"componentType":5120,"count":33,"type":"VEC3","normalized":true},{"bufferView":1,"byteOffset":23456,"componentType":5123,"count":33,"type":"VEC3","min":[1900,1900,9621],"max":[10140,10140,9621]},{"bufferView":2,"byteOffset":21540,"componentType":5123,"count":93,"type":"SCALAR"},{"bufferView":0,"byteOffset":11860,"componentType":5120,"count":1153,"type":"VEC3","normalized":true},{"bufferView":1,"byteOffset":23720,"componentType":5123,"count":1153,"type":"VEC3","min":[0,0,12062],"max":[12040,12040,13912]},{"bufferView":2,"byteOffset":21726,"componentType":5123,"count":4227,"type":"SCALAR"},{"bufferView":0,"byteOffset":16472,"componentType":5120,"count":624,"type":"VEC3","normalized":true},{"bufferView":1,"byteOffset":32944,"componentType":5123,"count":624,"type":"VEC3","min":[1433,1432,0],"max":[10607,16383,8428]},{"bufferView":2,"byteOffset":30180,"componentType":5123,"count":2943,"type":"SCALAR"},{"bufferView":0,"byteOffset":18968,"componentType":5120,"count":66,"type":"VEC3","normalized":true},{"bufferView":1,"byteOffset":37936,"componentType":5123,"count":66,"type":"VEC3","min":[4751,4555,6472],"max":[7289,7485,8450]},{"bufferView":2,"byteOffset":36066,"componentType":5123,"count":162,"type":"SCALAR"},{"bufferView":0,"byteOffset":19232,"componentType":5120,"count":2948,"type":"VEC3","normalized":true},{"bufferView":1,"byteOffset":38464,"componentType":5123,"count":2948,"type":"VEC3","min":[358,358,1578],"max":[11681,14802,12062]},{"bufferView":2,"byteOffset":36390,"componentType":5123,"count":15729,"type":"SCALAR"},{"bufferView":0,"byteOffset":31024,"componentType":5120,"count":58,"type":"VEC3","normalized":true},{"bufferView":1,"byteOffset":62048,"componentType":5123,"count":58,"type":"VEC3","min":[1141,1930,9621],"max":[10899,11069,9621]},{"bufferView":2,"byteOffset":67848,"componentType":5123,"count":168,"type":"SCALAR"}],"materials":[{"name":"0.910000_0.910000_0.910000_0.000000_0.000000","pbrMetallicRoughness":{"baseColorFactor":[0.910000026,0.910000026,0.910000026,1],"metallicFactor":0},"doubleSided":true},{"name":"0.525490_0.003922_0.003922_0.000000_0.000000","pbrMetallicRoughness":{"baseColorFactor":[0.525490224,0.00392156886,0.00392156886,1],"metallicFactor":0},"doubleSided":true},{"name":"1.000000_0.541176_0.090196_0.000000_0.000000","pbrMetallicRoughness":{"baseColorFactor":[1,0.541176498,0.0901960805,1],"metallicFactor":0},"doubleSided":true},{"name":"0.701961_0.701961_0.701961_0.000000_0.000000","pbrMetallicRoughness":{"baseColorFactor":[0.701960802,0.701960802,0.701960802,1],"metallicFactor":0},"doubleSided":true},{"name":"0.262745_0.282353_0.301961_0.000000_0.000000","pbrMetallicRoughness":{"baseColorFactor":[0.262745112,0.282352954,0.301960796,1],"metallicFactor":0},"doubleSided":true},{"name":"0.650980_0.486275_0.019608_0.000000_0.000000","pbrMetallicRoughness":{"baseColorFactor":[0.650980413,0.486274511,0.0196078438,1],"metallicFactor":0},"doubleSided":true},{"name":"0.901961_0.878431_0.811765_0.000000_0.000000","pbrMetallicRoughness":{"baseColorFactor":[0.90196079,0.87843138,0.811764717,1],"metallicFactor":0},"doubleSided":true},{"name":"0.792157_0.819608_0.933333_0.000000_0.000000","pbrMetallicRoughness":{"baseColorFactor":[0.792156875,0.819607854,0.933333337,1],"metallicFactor":0},"doubleSided":true}],"meshes":[{"primitives":[{"attributes":{"NORMAL":0,"POSITION":1},"indices":2,"material":0},{"attributes":{"NORMAL":3,"POSITION":4},"indices":5,"material":1},{"attributes":{"NORMAL":6,"POSITION":7},"indices":8,"material":2},{"attributes":{"NORMAL":9,"POSITION":10},"indices":11,"material":3},{"attributes":{"NORMAL":12,"POSITION":13},"indices":14,"material":4},{"attributes":{"NORMAL":15,"POSITION":16},"indices":17,"material":5},{"attributes":{"NORMAL":18,"POSITION":19},"indices":20,"material":6},{"attributes":{"NORMAL":21,"POSITION":22},"indices":23,"material":7}]}],"nodes":[{"mesh":0,"translation":[-0.0450000018,-0.0450000018,-0.103999831],"scale":[7.47533795e-06,7.47533795e-06,7.47533795e-06]}],"scenes":[{"name":"Root","nodes":[0]}],"scene":0}