{"asset":{"version":"2.0","generator":"gltfpack 1.1"},"extensionsUsed":["KHR_mesh_quantization"],"extensionsRequired":["KHR_mesh_quantization"],"buffers":[{"uri":"handle.bin","byteLength":90228}],"bufferViews":[{"buffer":0,"byteOffset":0,"byteLength":17888,"byteStride":4,"target":34962},{"buffer":0,"byteOffset":17888,"byteLength":35776,"byteStride":8,"target":34962},{"buffer":0,"byteOffset":53664,"byteLength":36564,"target":34963}],"accessors":[{"bufferView":0,"byteOffset":0,"componentType":5120,"count":3791,"type":"VEC3","normalized":true},{"bufferView":1,"byteOffset":0,"componentType":5123,"count":3791,"type":"VEC3","min":[0,0,0],"max":[16383,2614,5229]},{"bufferView":2,"byteOffset":0,"componentType":5123,"count":16170,"type":"SCALAR"},{"bufferView":0,"byteOffset":15164,"componentType":5120,"count":681,"type":"VEC3","normalized":true},{"bufferView":1,"byteOffset":30328,"componentType":5123,"count":681,"type":"VEC3","min":[40,261,697],"max":[16343,2353,4967]},{"bufferView":2,"byteOffset":32340,"componentType":5123,"count":2112,"type":"SCALAR"}],"materials":[{"name":"0.156863_0.156863_0.156863_0.000000_0.000000","pbrMetallicRoughness":{"baseColorFactor":[0.156862751,0.156862751,0.156862751,1],"metallicFactor":0},"doubleSided":true}],"meshes":[{"primitives":[{"attributes":{"NORMAL":0,"POSITION":1},"indices":2,"material":0}]},{"primitives":[{"attributes":{"NORMAL":3,"POSITION":4},"indices":5,"material":0}]}],"nodes":[{"mesh":0,"translation":[-0.0140000004,-0.014999886,0],"scale":[1.14753093e-05,1.14753093e-05,1.14753093e-05]},{"mesh":0,"translation":[-0.0140000004,-0.014999886,0],"scale":[1.14753093e-05,1.14753093e-05,1.14753093e-05]},{"mesh":1,"translation":[-0.0140000004,-0.014999886,0],"scale":[1.14753093e-05,1.14753093e-05,1.14753093e-05]},{"name":"HW-HD-001-0001__2-0","children":[0]},{"name":"HW-HD-001-0001__2-2","children":[1]}],"scenes":[{"name":"Root","nodes":[2,3,4]}],"scene":0}