{"asset":{"version":"2.0","generator":"gltfpack 1.1"},"extensionsUsed":["KHR_mesh_quantization"],"extensionsRequired":["KHR_mesh_quantization"],"buffers":[{"uri":"HW_EC_005_0001.bin","byteLength":65136}],"bufferViews":[{"buffer":0,"byteOffset":0,"byteLength":14576,"byteStride":4,"target":34962},{"buffer":0,"byteOffset":14576,"byteLength":29152,"byteStride":8,"target":34962},{"buffer":0,"byteOffset":43728,"byteLength":21408,"target":34963}],"accessors":[{"bufferView":0,"byteOffset":0,"componentType":5120,"count":3644,"type":"VEC3","normalized":true},{"bufferView":1,"byteOffset":0,"componentType":5123,"count":3644,"type":"VEC3","min":[0,0,0],"max":[16383,2184,16383]},{"bufferView":2,"byteOffset":0,"componentType":5123,"count":10704,"type":"SCALAR"}],"materials":[{"name":"0.196078_0.196078_0.196078_0.000000_0.000000","pbrMetallicRoughness":{"baseColorFactor":[0.196078435,0.196078435,0.196078435,1],"metallicFactor":0},"doubleSided":true}],"meshes":[{"primitives":[{"attributes":{"NORMAL":0,"POSITION":1},"indices":2,"material":0}]}],"nodes":[{"mesh":0,"translation":[-0.0450000018,-0.00400000019,-0.0450000018],"scale":[5.49349943e-06,5.49349943e-06,5.49349943e-06]}],"scenes":[{"name":"Root","nodes":[0]}],"scene":0}