{"asset":{"version":"2.0","generator":"gltfpack 1.1"},"extensionsUsed":["KHR_mesh_quantization"],"extensionsRequired":["KHR_mesh_quantization"],"buffers":[{"uri":"HW_EC_002_0001__2.bin","byteLength":54132}],"bufferViews":[{"buffer":0,"byteOffset":0,"byteLength":12240,"byteStride":4,"target":34962},{"buffer":0,"byteOffset":12240,"byteLength":24480,"byteStride":8,"target":34962},{"buffer":0,"byteOffset":36720,"byteLength":17412,"target":34963}],"accessors":[{"bufferView":0,"byteOffset":0,"componentType":5120,"count":3060,"type":"VEC3","normalized":true},{"bufferView":1,"byteOffset":0,"componentType":5123,"count":3060,"type":"VEC3","min":[0,0,0],"max":[16383,2184,8192]},{"bufferView":2,"byteOffset":0,"componentType":5123,"count":8706,"type":"SCALAR"}],"materials":[{"name":"0.196078_0.196078_0.196078_0.000000_0.000000","pbrMetallicRoughness":{"baseColorFactor":[0.196078435,0.196078435,0.196078435,1],"metallicFactor":0},"doubleSided":true}],"meshes":[{"primitives":[{"attributes":{"NORMAL":0,"POSITION":1},"indices":2,"material":0}]}],"nodes":[{"mesh":0,"translation":[-0.0450000018,-0.00400000019,-0.0225000009],"scale":[5.49349943e-06,5.49349943e-06,5.49349943e-06]}],"scenes":[{"name":"Root","nodes":[0]}],"scene":0}