{"asset":{"version":"2.0","generator":"gltfpack 1.1"},"extensionsUsed":["KHR_mesh_quantization"],"extensionsRequired":["KHR_mesh_quantization"],"buffers":[{"uri":"ratchet_handle.bin","byteLength":48852}],"bufferViews":[{"buffer":0,"byteOffset":0,"byteLength":10428,"byteStride":4,"target":34962},{"buffer":0,"byteOffset":10428,"byteLength":20856,"byteStride":8,"target":34962},{"buffer":0,"byteOffset":31284,"byteLength":17568,"target":34963}],"accessors":[{"bufferView":0,"byteOffset":0,"componentType":5120,"count":2607,"type":"VEC3","normalized":true},{"bufferView":1,"byteOffset":0,"componentType":5123,"count":2607,"type":"VEC3","min":[0,0,0],"max":[3938,14034,16383]},{"bufferView":2,"byteOffset":0,"componentType":5123,"count":8784,"type":"SCALAR"}],"materials":[{"name":"0.156863_0.156863_0.156863_0.000000_0.000000","pbrMetallicRoughness":{"baseColorFactor":[0.156862751,0.156862751,0.156862751,1],"metallicFactor":0},"doubleSided":true}],"meshes":[{"primitives":[{"attributes":{"NORMAL":0,"POSITION":1},"indices":2,"material":0}]}],"nodes":[{"mesh":0,"translation":[-0.00824799296,-0.0507876389,-0.00824799296],"scale":[4.18888794e-06,4.18888794e-06,4.18888794e-06]}],"scenes":[{"name":"Root","nodes":[0]}],"scene":0}