{"asset":{"version":"2.0","generator":"gltfpack 1.1"},"extensionsUsed":["KHR_mesh_quantization"],"extensionsRequired":["KHR_mesh_quantization"],"buffers":[{"uri":"ST_EXT_005_0585.bin","byteLength":56328}],"bufferViews":[{"buffer":0,"byteOffset":0,"byteLength":12912,"byteStride":4,"target":34962},{"buffer":0,"byteOffset":12912,"byteLength":25824,"byteStride":8,"target":34962},{"buffer":0,"byteOffset":38736,"byteLength":17592,"target":34963}],"accessors":[{"bufferView":0,"byteOffset":0,"componentType":5120,"count":3228,"type":"VEC3","normalized":true},{"bufferView":1,"byteOffset":0,"componentType":5123,"count":3228,"type":"VEC3","min":[0,0,0],"max":[2520,16383,2520]},{"bufferView":2,"byteOffset":0,"componentType":5123,"count":8796,"type":"SCALAR"}],"materials":[{"name":"0.337255_0.533333_0.756863_0.000000_0.000000","pbrMetallicRoughness":{"baseColorFactor":[0.337254912,0.533333361,0.75686276,1],"metallicFactor":0},"doubleSided":true}],"meshes":[{"primitives":[{"attributes":{"NORMAL":0,"POSITION":1},"indices":2,"material":0}]}],"nodes":[{"mesh":0,"translation":[-0.0450000018,-0.584999979,-0.0450000018],"scale":[3.57077442e-05,3.57077442e-05,3.57077442e-05]}],"scenes":[{"name":"Root","nodes":[0]}],"scene":0}