{"asset":{"version":"2.0","generator":"gltfpack 1.1"},"extensionsUsed":["KHR_mesh_quantization"],"extensionsRequired":["KHR_mesh_quantization"],"buffers":[{"uri":"ST_EXT_001_0810.bin","byteLength":27276}],"bufferViews":[{"buffer":0,"byteOffset":0,"byteLength":6180,"byteStride":4,"target":34962},{"buffer":0,"byteOffset":6180,"byteLength":12360,"byteStride":8,"target":34962},{"buffer":0,"byteOffset":18540,"byteLength":8736,"target":34963}],"accessors":[{"bufferView":0,"byteOffset":0,"componentType":5120,"count":1545,"type":"VEC3","normalized":true},{"bufferView":1,"byteOffset":0,"componentType":5123,"count":1545,"type":"VEC3","min":[0,0,0],"max":[910,16383,910]},{"bufferView":2,"byteOffset":0,"componentType":5123,"count":4368,"type":"SCALAR"}],"materials":[{"name":"0.337255_0.533333_0.756863_0.000000_0.000000","pbrMetallicRoughness":{"baseColorFactor":[0.337254912,0.533333361,0.75686276,1],"metallicFactor":0},"doubleSided":true}],"meshes":[{"primitives":[{"attributes":{"NORMAL":0,"POSITION":1},"indices":2,"material":0}]}],"nodes":[{"mesh":0,"translation":[-0.0225000009,-0.810000002,-0.0225000009],"scale":[4.94414926e-05,4.94414926e-05,4.94414926e-05]}],"scenes":[{"name":"Root","nodes":[0]}],"scene":0}