{"asset":{"version":"2.0","generator":"gltfpack 1.1"},"extensionsUsed":["KHR_mesh_quantization"],"extensionsRequired":["KHR_mesh_quantization"],"buffers":[{"uri":"ST_EXT_002_0765.bin","byteLength":42480}],"bufferViews":[{"buffer":0,"byteOffset":0,"byteLength":9664,"byteStride":4,"target":34962},{"buffer":0,"byteOffset":9664,"byteLength":19328,"byteStride":8,"target":34962},{"buffer":0,"byteOffset":28992,"byteLength":13488,"target":34963}],"accessors":[{"bufferView":0,"byteOffset":0,"componentType":5120,"count":2416,"type":"VEC3","normalized":true},{"bufferView":1,"byteOffset":0,"componentType":5123,"count":2416,"type":"VEC3","min":[0,0,0],"max":[1927,16383,964]},{"bufferView":2,"byteOffset":0,"componentType":5123,"count":6744,"type":"SCALAR"}],"materials":[{"name":"0.337255_0.533333_0.756863_0.000000_0.000000","pbrMetallicRoughness":{"baseColorFactor":[0.337254912,0.533333361,0.75686276,1],"metallicFactor":0},"doubleSided":true}],"meshes":[{"primitives":[{"attributes":{"NORMAL":0,"POSITION":1},"indices":2,"material":0}]}],"nodes":[{"mesh":0,"translation":[-0.0675000027,-0.764999986,-0.0225000009],"scale":[4.66947422e-05,4.66947422e-05,4.66947422e-05]}],"scenes":[{"name":"Root","nodes":[0]}],"scene":0}