{"asset":{"version":"2.0","generator":"gltfpack 1.1"},"extensionsUsed":["KHR_mesh_quantization"],"extensionsRequired":["KHR_mesh_quantization"],"buffers":[{"uri":"ST_GP_001_0010.bin","byteLength":15348}],"bufferViews":[{"buffer":0,"byteOffset":0,"byteLength":3328,"byteStride":4,"target":34962},{"buffer":0,"byteOffset":3328,"byteLength":6656,"byteStride":8,"target":34962},{"buffer":0,"byteOffset":9984,"byteLength":5364,"target":34963}],"accessors":[{"bufferView":0,"byteOffset":0,"componentType":5120,"count":832,"type":"VEC3","normalized":true},{"bufferView":1,"byteOffset":0,"componentType":5123,"count":832,"type":"VEC3","min":[0,0,0],"max":[16383,552,16383]},{"bufferView":2,"byteOffset":0,"componentType":5123,"count":2682,"type":"SCALAR"}],"materials":[{"name":"0.337255_0.533333_0.756863_0.000000_0.000000","pbrMetallicRoughness":{"baseColorFactor":[0.337254912,0.533333361,0.75686276,1],"metallicFactor":0},"doubleSided":true}],"meshes":[{"primitives":[{"attributes":{"NORMAL":0,"POSITION":1},"indices":2,"material":0}]}],"nodes":[{"mesh":0,"translation":[-0.178000003,-0.00600000005,0],"scale":[1.0864921e-05,1.0864921e-05,1.0864921e-05]}],"scenes":[{"name":"Root","nodes":[0]}],"scene":0}