{"asset":{"version":"2.0","generator":"gltfpack 1.1"},"extensionsUsed":["KHR_mesh_quantization"],"extensionsRequired":["KHR_mesh_quantization"],"buffers":[{"uri":"ST_GP_001_0019.bin","byteLength":12900}],"bufferViews":[{"buffer":0,"byteOffset":0,"byteLength":2808,"byteStride":4,"target":34962},{"buffer":0,"byteOffset":2808,"byteLength":5616,"byteStride":8,"target":34962},{"buffer":0,"byteOffset":8424,"byteLength":4476,"target":34963}],"accessors":[{"bufferView":0,"byteOffset":0,"componentType":5120,"count":702,"type":"VEC3","normalized":true},{"bufferView":1,"byteOffset":0,"componentType":5123,"count":702,"type":"VEC3","min":[0,0,0],"max":[16383,441,6465]},{"bufferView":2,"byteOffset":0,"componentType":5123,"count":2238,"type":"SCALAR"}],"materials":[{"name":"0.337255_0.533333_0.756863_0.000000_0.000000","pbrMetallicRoughness":{"baseColorFactor":[0.337254912,0.533333361,0.75686276,1],"metallicFactor":0},"doubleSided":true}],"meshes":[{"primitives":[{"attributes":{"NORMAL":0,"POSITION":1},"indices":2,"material":0}]}],"nodes":[{"mesh":0,"translation":[-0.111500002,-0.00300000003,-0.0439999998],"scale":[1.36116705e-05,1.36116705e-05,1.36116705e-05]}],"scenes":[{"name":"Root","nodes":[0]}],"scene":0}