{"asset":{"version":"2.0","generator":"gltfpack 1.1"},"extensionsUsed":["KHR_mesh_quantization"],"extensionsRequired":["KHR_mesh_quantization"],"buffers":[{"uri":"ST_HP_003_0004.bin","byteLength":11172}],"bufferViews":[{"buffer":0,"byteOffset":0,"byteLength":2512,"byteStride":4,"target":34962},{"buffer":0,"byteOffset":2512,"byteLength":5024,"byteStride":8,"target":34962},{"buffer":0,"byteOffset":7536,"byteLength":3636,"target":34963}],"accessors":[{"bufferView":0,"byteOffset":0,"componentType":5120,"count":628,"type":"VEC3","normalized":true},{"bufferView":1,"byteOffset":0,"componentType":5123,"count":628,"type":"VEC3","min":[0,0,0],"max":[16383,15966,16383]},{"bufferView":2,"byteOffset":0,"componentType":5123,"count":1818,"type":"SCALAR"}],"materials":[{"name":"0.337255_0.533333_0.756863_0.000000_0.000000","pbrMetallicRoughness":{"baseColorFactor":[0.337254912,0.533333361,0.75686276,1],"metallicFactor":0},"doubleSided":true}],"meshes":[{"primitives":[{"attributes":{"NORMAL":0,"POSITION":1},"indices":2,"material":0}]}],"nodes":[{"mesh":0,"translation":[-0.00230000005,-0.0879999995,-0.00230000005],"scale":[5.5118112e-06,5.5118112e-06,5.5118112e-06]}],"scenes":[{"name":"Root","nodes":[0]}],"scene":0}