{"asset":{"version":"2.0","generator":"gltfpack 1.1"},"extensionsUsed":["KHR_mesh_quantization"],"extensionsRequired":["KHR_mesh_quantization"],"buffers":[{"uri":"ST_RB_013_0001.bin","byteLength":19668}],"bufferViews":[{"buffer":0,"byteOffset":0,"byteLength":4332,"byteStride":4,"target":34962},{"buffer":0,"byteOffset":4332,"byteLength":8664,"byteStride":8,"target":34962},{"buffer":0,"byteOffset":12996,"byteLength":6672,"target":34963}],"accessors":[{"bufferView":0,"byteOffset":0,"componentType":5120,"count":1019,"type":"VEC3","normalized":true},{"bufferView":1,"byteOffset":0,"componentType":5123,"count":1019,"type":"VEC3","min":[0,0,0],"max":[14456,16383,723]},{"bufferView":2,"byteOffset":0,"componentType":5123,"count":3144,"type":"SCALAR"},{"bufferView":0,"byteOffset":4076,"componentType":5120,"count":64,"type":"VEC3","normalized":true},{"bufferView":1,"byteOffset":8152,"componentType":5123,"count":64,"type":"VEC3","min":[1870,1741,0],"max":[12586,10337,652]},{"bufferView":2,"byteOffset":6288,"componentType":5123,"count":192,"type":"SCALAR"}],"materials":[{"name":"0.337255_0.533333_0.756863_0.000000_0.000000","pbrMetallicRoughness":{"baseColorFactor":[0.337254912,0.533333361,0.75686276,1],"metallicFactor":0},"doubleSided":true},{"name":"0.792157_0.819608_0.933333_0.000000_0.000000","pbrMetallicRoughness":{"baseColorFactor":[0.792156875,0.819607854,0.933333337,1],"metallicFactor":0},"doubleSided":true}],"meshes":[{"primitives":[{"attributes":{"NORMAL":0,"POSITION":1},"indices":2,"material":0},{"attributes":{"NORMAL":3,"POSITION":4},"indices":5,"material":1}]}],"nodes":[{"mesh":0,"translation":[-0.112499997,-0.127499998,-1.73472348e-18],"scale":[1.55649141e-05,1.55649141e-05,1.55649141e-05]}],"scenes":[{"name":"Root","nodes":[0]}],"scene":0}