{"asset":{"version":"2.0","generator":"gltfpack 1.1"},"extensionsUsed":["KHR_mesh_quantization"],"extensionsRequired":["KHR_mesh_quantization"],"buffers":[{"uri":"ST_SP_010_0003.bin","byteLength":16524}],"bufferViews":[{"buffer":0,"byteOffset":0,"byteLength":3572,"byteStride":4,"target":34962},{"buffer":0,"byteOffset":3572,"byteLength":7144,"byteStride":8,"target":34962},{"buffer":0,"byteOffset":10716,"byteLength":5808,"target":34963}],"accessors":[{"bufferView":0,"byteOffset":0,"componentType":5120,"count":795,"type":"VEC3","normalized":true},{"bufferView":1,"byteOffset":0,"componentType":5123,"count":795,"type":"VEC3","min":[0,0,0],"max":[11534,16383,1573]},{"bufferView":2,"byteOffset":0,"componentType":5123,"count":2610,"type":"SCALAR"},{"bufferView":0,"byteOffset":3180,"componentType":5120,"count":98,"type":"VEC3","normalized":true},{"bufferView":1,"byteOffset":6360,"componentType":5123,"count":98,"type":"VEC3","min":[734,2503,0],"max":[10800,13880,1573]},{"bufferView":2,"byteOffset":5220,"componentType":5123,"count":294,"type":"SCALAR"}],"materials":[{"name":"0.337255_0.533333_0.756863_0.000000_0.000000","pbrMetallicRoughness":{"baseColorFactor":[0.337254912,0.533333361,0.75686276,1],"metallicFactor":0},"doubleSided":true},{"name":"0.792157_0.819608_0.933333_0.000000_0.000000","pbrMetallicRoughness":{"baseColorFactor":[0.792156875,0.819607854,0.933333337,1],"metallicFactor":0},"doubleSided":true}],"meshes":[{"primitives":[{"attributes":{"NORMAL":0,"POSITION":1},"indices":2,"material":0},{"attributes":{"NORMAL":3,"POSITION":4},"indices":5,"material":1}]}],"nodes":[{"mesh":0,"translation":[-0.0439999998,-0.0625,0],"scale":[7.62986019e-06,7.62986019e-06,7.62986019e-06]}],"scenes":[{"name":"Root","nodes":[0]}],"scene":0}