{"asset":{"version":"2.0","generator":"gltfpack 1.1"},"extensionsUsed":["KHR_mesh_quantization"],"extensionsRequired":["KHR_mesh_quantization"],"buffers":[{"uri":"ST_SP_006_0005__2.bin","byteLength":16032}],"bufferViews":[{"buffer":0,"byteOffset":0,"byteLength":3464,"byteStride":4,"target":34962},{"buffer":0,"byteOffset":3464,"byteLength":6928,"byteStride":8,"target":34962},{"buffer":0,"byteOffset":10392,"byteLength":5640,"target":34963}],"accessors":[{"bufferView":0,"byteOffset":0,"componentType":5120,"count":626,"type":"VEC3","normalized":true},{"bufferView":1,"byteOffset":0,"componentType":5123,"count":626,"type":"VEC3","min":[0,0,0],"max":[16383,1659,3243]},{"bufferView":2,"byteOffset":0,"componentType":5123,"count":2100,"type":"SCALAR"},{"bufferView":0,"byteOffset":2504,"componentType":5120,"count":240,"type":"VEC3","normalized":true},{"bufferView":1,"byteOffset":5008,"componentType":5123,"count":240,"type":"VEC3","min":[284,373,37],"max":[16085,741,221]},{"bufferView":2,"byteOffset":4200,"componentType":5123,"count":720,"type":"SCALAR"}],"materials":[{"name":"0.156863_0.156863_0.156863_0.000000_0.000000","pbrMetallicRoughness":{"baseColorFactor":[0.156862751,0.156862751,0.156862751,1],"metallicFactor":0},"doubleSided":true},{"name":"0.776471_0.776471_0.819608_0.000000_0.000000","pbrMetallicRoughness":{"baseColorFactor":[0.776470602,0.776470602,0.819607854,1],"metallicFactor":0},"doubleSided":true}],"meshes":[{"primitives":[{"attributes":{"NORMAL":0,"POSITION":1},"indices":2,"material":0},{"attributes":{"NORMAL":3,"POSITION":4},"indices":5,"material":1}]}],"nodes":[{"mesh":0,"translation":[-0.111125,-0.0195000004,-0.0219999999],"scale":[1.35658911e-05,1.35658911e-05,1.35658911e-05]}],"scenes":[{"name":"Root","nodes":[0]}],"scene":0}