{"asset":{"version":"2.0","generator":"gltfpack 1.1"},"extensionsUsed":["KHR_mesh_quantization"],"extensionsRequired":["KHR_mesh_quantization"],"buffers":[{"uri":"camera_corner_mount.bin","byteLength":18372}],"bufferViews":[{"buffer":0,"byteOffset":0,"byteLength":4148,"byteStride":4,"target":34962},{"buffer":0,"byteOffset":4148,"byteLength":8296,"byteStride":8,"target":34962},{"buffer":0,"byteOffset":12444,"byteLength":5928,"target":34963}],"accessors":[{"bufferView":0,"byteOffset":0,"componentType":5120,"count":1037,"type":"VEC3","normalized":true},{"bufferView":1,"byteOffset":0,"componentType":5123,"count":1037,"type":"VEC3","min":[0,0,0],"max":[9768,16383,16383]},{"bufferView":2,"byteOffset":0,"componentType":5123,"count":2964,"type":"SCALAR"}],"materials":[{"name":"0.156863_0.156863_0.156863_0.000000_0.000000","pbrMetallicRoughness":{"baseColorFactor":[0.156862751,0.156862751,0.156862751,1],"metallicFactor":0},"doubleSided":true}],"meshes":[{"primitives":[{"attributes":{"NORMAL":0,"POSITION":1},"indices":2,"material":0}]}],"nodes":[{"mesh":0,"translation":[-0.0225000009,-0.241500005,-0.0675801337],"scale":[6.50064112e-06,6.50064112e-06,6.50064112e-06]}],"scenes":[{"name":"Root","nodes":[0]}],"scene":0}