{"asset":{"version":"2.0","generator":"gltfpack 1.1"},"extensionsUsed":["KHR_mesh_quantization"],"extensionsRequired":["KHR_mesh_quantization"],"buffers":[{"uri":"control_box.bin","byteLength":1262900}],"bufferViews":[{"buffer":0,"byteOffset":0,"byteLength":288192,"byteStride":4,"target":34962},{"buffer":0,"byteOffset":288192,"byteLength":576384,"byteStride":8,"target":34962},{"buffer":0,"byteOffset":864576,"byteLength":398322,"target":34963}],"accessors":[{"bufferView":0,"byteOffset":0,"componentType":5120,"count":13382,"type":"VEC3","normalized":true},{"bufferView":1,"byteOffset":0,"componentType":5123,"count":13382,"type":"VEC3","min":[10894,2889,136],"max":[12933,14981,2855]},{"bufferView":2,"byteOffset":0,"componentType":5123,"count":44631,"type":"SCALAR"},{"bufferView":0,"byteOffset":53528,"componentType":5120,"count":164,"type":"VEC3","normalized":true},{"bufferView":1,"byteOffset":107056,"componentType":5123,"count":164,"type":"VEC3","min":[0,13433,498],"max":[408,13786,1049]},{"bufferView":2,"byteOffset":89262,"componentType":5123,"count":438,"type":"SCALAR"},{"bufferView":0,"byteOffset":54184,"componentType":5120,"count":43,"type":"VEC3","normalized":true},{"bufferView":1,"byteOffset":108368,"componentType":5123,"count":43,"type":"VEC3","min":[17,13558,621],"max":[130,13660,943]},{"bufferView":2,"byteOffset":90138,"componentType":5123,"count":123,"type":"SCALAR"},{"bufferView":0,"byteOffset":54356,"componentType":5120,"count":17289,"type":"VEC3","normalized":true},{"bufferView":1,"byteOffset":108712,"componentType":5123,"count":17289,"type":"VEC3","min":[95,11278,59],"max":[12933,15540,2022]},{"bufferView":2,"byteOffset":90384,"componentType":5123,"count":50529,"type":"SCALAR"},{"bufferView":0,"byteOffset":123512,"componentType":5120,"count":33246,"type":"VEC3","normalized":true},{"bufferView":1,"byteOffset":247024,"componentType":5123,"count":33246,"type":"VEC3","min":[143,0,0],"max":[12253,16383,2991]},{"bufferView":2,"byteOffset":191442,"componentType":5123,"count":80532,"type":"SCALAR"},{"bufferView":0,"byteOffset":256496,"componentType":5120,"count":120,"type":"VEC3","normalized":true},{"bufferView":1,"byteOffset":512992,"componentType":5123,"count":120,"type":"VEC3","min":[12097,14233,1113],"max":[12182,14998,1878]},{"bufferView":2,"byteOffset":352506,"componentType":5123,"count":360,"type":"SCALAR"},{"bufferView":0,"byteOffset":256976,"componentType":5120,"count":18,"type":"VEC3","normalized":true},{"bufferView":1,"byteOffset":513952,"componentType":5123,"count":18,"type":"VEC3","min":[12280,13175,1217],"max":[12280,13677,1774]},{"bufferView":2,"byteOffset":353226,"componentType":5123,"count":54,"type":"SCALAR"},{"bufferView":0,"byteOffset":257048,"componentType":5120,"count":7696,"type":"VEC3","normalized":true},{"bufferView":1,"byteOffset":514096,"componentType":5123,"count":7696,"type":"VEC3","min":[178,714,3],"max":[12236,15091,2836]},{"bufferView":2,"byteOffset":353334,"componentType":5123,"count":22368,"type":"SCALAR"},{"bufferView":0,"byteOffset":287832,"componentType":5120,"count":90,"type":"VEC3","normalized":true},{"bufferView":1,"byteOffset":575664,"componentType":5123,"count":90,"type":"VEC3","min":[163,14250,608],"max":[673,14811,897]},{"bufferView":2,"byteOffset":398070,"componentType":5123,"count":126,"type":"SCALAR"}],"materials":[{"name":"0.200000_0.200000_0.200000_0.000000_0.000000","pbrMetallicRoughness":{"baseColorFactor":[0.200000003,0.200000003,0.200000003,1],"metallicFactor":0},"doubleSided":true},{"name":"0.156863_0.156863_0.156863_0.000000_0.000000","pbrMetallicRoughness":{"baseColorFactor":[0.156862751,0.156862751,0.156862751,1],"metallicFactor":0},"doubleSided":true},{"name":"0.901961_0.901961_0.901961_0.000000_0.000000","pbrMetallicRoughness":{"baseColorFactor":[0.90196079,0.90196079,0.90196079,1],"metallicFactor":0},"doubleSided":true},{"name":"0.701961_0.701961_0.701961_0.000000_0.000000","pbrMetallicRoughness":{"baseColorFactor":[0.701960802,0.701960802,0.701960802,1],"metallicFactor":0},"doubleSided":true},{"name":"0.066667_0.066667_0.066667_0.000000_0.000000","pbrMetallicRoughness":{"baseColorFactor":[0.0666666701,0.0666666701,0.0666666701,1],"metallicFactor":0},"doubleSided":true},{"name":"0.396078_0.933333_0.450980_0.000000_0.000000","pbrMetallicRoughness":{"baseColorFactor":[0.396078438,0.933333337,0.450980395,1],"metallicFactor":0},"doubleSided":true},{"name":"1.000000_1.000000_1.000000_0.000000_0.000000","pbrMetallicRoughness":{"metallicFactor":0},"doubleSided":true},{"name":"0.337255_0.533333_0.756863_0.000000_0.000000","pbrMetallicRoughness":{"baseColorFactor":[0.337254912,0.533333361,0.75686276,1],"metallicFactor":0},"doubleSided":true},{"name":"0.650980_0.486275_0.019608_0.000000_0.000000","pbrMetallicRoughness":{"baseColorFactor":[0.650980413,0.486274511,0.0196078438,1],"metallicFactor":0},"doubleSided":true}],"meshes":[{"primitives":[{"attributes":{"NORMAL":0,"POSITION":1},"indices":2,"material":0},{"attributes":{"NORMAL":3,"POSITION":4},"indices":5,"material":1},{"attributes":{"NORMAL":6,"POSITION":7},"indices":8,"material":2},{"attributes":{"NORMAL":9,"POSITION":10},"indices":11,"material":3},{"attributes":{"NORMAL":12,"POSITION":13},"indices":14,"material":4},{"attributes":{"NORMAL":15,"POSITION":16},"indices":17,"material":5},{"attributes":{"NORMAL":18,"POSITION":19},"indices":20,"material":6},{"attributes":{"NORMAL":21,"POSITION":22},"indices":23,"material":7},{"attributes":{"NORMAL":24,"POSITION":25},"indices":26,"material":8}]}],"nodes":[{"mesh":0,"translation":[-0.181965351,-0.241012096,-9.99999975e-05],"scale":[2.94207402e-05,2.94207402e-05,2.94207402e-05]}],"scenes":[{"name":"Root","nodes":[0]}],"scene":0}