{"asset":{"version":"2.0","generator":"gltfpack 1.1"},"extensionsUsed":["KHR_mesh_quantization"],"extensionsRequired":["KHR_mesh_quantization"],"buffers":[{"uri":"estop.bin","byteLength":38888}],"bufferViews":[{"buffer":0,"byteOffset":0,"byteLength":8636,"byteStride":4,"target":34962},{"buffer":0,"byteOffset":8636,"byteLength":17272,"byteStride":8,"target":34962},{"buffer":0,"byteOffset":25908,"byteLength":12978,"target":34963}],"accessors":[{"bufferView":0,"byteOffset":0,"componentType":5120,"count":1480,"type":"VEC3","normalized":true},{"bufferView":1,"byteOffset":0,"componentType":5123,"count":1480,"type":"VEC3","min":[0,1261,0],"max":[11353,16383,12614]},{"bufferView":2,"byteOffset":0,"componentType":5123,"count":4263,"type":"SCALAR"},{"bufferView":0,"byteOffset":5920,"componentType":5120,"count":242,"type":"VEC3","normalized":true},{"bufferView":1,"byteOffset":11840,"componentType":5123,"count":242,"type":"VEC3","min":[0,7553,0],"max":[11353,10431,12614]},{"bufferView":2,"byteOffset":8526,"componentType":5123,"count":747,"type":"SCALAR"},{"bufferView":0,"byteOffset":6888,"componentType":5120,"count":64,"type":"VEC3","normalized":true},{"bufferView":1,"byteOffset":13776,"componentType":5123,"count":64,"type":"VEC3","min":[549,7766,1879],"max":[10804,7766,10735]},{"bufferView":2,"byteOffset":10020,"componentType":5123,"count":168,"type":"SCALAR"},{"bufferView":0,"byteOffset":7144,"componentType":5120,"count":373,"type":"VEC3","normalized":true},{"bufferView":1,"byteOffset":14288,"componentType":5123,"count":373,"type":"VEC3","min":[2681,0,2697],"max":[8673,6591,8656]},{"bufferView":2,"byteOffset":10356,"componentType":5123,"count":1311,"type":"SCALAR"}],"materials":[{"name":"0.298039_0.298039_0.298039_0.000000_0.000000","pbrMetallicRoughness":{"baseColorFactor":[0.298039228,0.298039228,0.298039228,1],"metallicFactor":0},"doubleSided":true},{"name":"0.968627_0.717647_0.231373_0.000000_0.000000","pbrMetallicRoughness":{"baseColorFactor":[0.968627453,0.717647076,0.23137255,1],"metallicFactor":0},"doubleSided":true},{"name":"0.866667_0.909804_1.000000_0.000000_0.000000","pbrMetallicRoughness":{"baseColorFactor":[0.866666675,0.909803927,1,1],"metallicFactor":0},"doubleSided":true},{"name":"0.694118_0.098039_0.098039_0.000000_0.000000","pbrMetallicRoughness":{"baseColorFactor":[0.694117665,0.0980392173,0.0980392173,1],"metallicFactor":0},"doubleSided":true}],"meshes":[{"primitives":[{"attributes":{"NORMAL":0,"POSITION":1},"indices":2,"material":0},{"attributes":{"NORMAL":3,"POSITION":4},"indices":5,"material":1},{"attributes":{"NORMAL":6,"POSITION":7},"indices":8,"material":2},{"attributes":{"NORMAL":9,"POSITION":10},"indices":11,"material":3}]}],"nodes":[{"mesh":0,"translation":[-0.0360010006,-0.0478999987,-0.0359999985],"scale":[6.34193975e-06,6.34193975e-06,6.34193975e-06]}],"scenes":[{"name":"Root","nodes":[0]}],"scene":0}