{"asset":{"version":"2.0","generator":"gltfpack 1.1"},"extensionsUsed":["KHR_mesh_quantization"],"extensionsRequired":["KHR_mesh_quantization"],"buffers":[{"uri":"estop_bracket.bin","byteLength":13440}],"bufferViews":[{"buffer":0,"byteOffset":0,"byteLength":2944,"byteStride":4,"target":34962},{"buffer":0,"byteOffset":2944,"byteLength":5888,"byteStride":8,"target":34962},{"buffer":0,"byteOffset":8832,"byteLength":4608,"target":34963}],"accessors":[{"bufferView":0,"byteOffset":0,"componentType":5120,"count":736,"type":"VEC3","normalized":true},{"bufferView":1,"byteOffset":0,"componentType":5123,"count":736,"type":"VEC3","min":[0,0,0],"max":[16383,11238,13806]},{"bufferView":2,"byteOffset":0,"componentType":5123,"count":2304,"type":"SCALAR"}],"materials":[{"name":"0.156863_0.156863_0.156863_0.000000_0.000000","pbrMetallicRoughness":{"baseColorFactor":[0.156862751,0.156862751,0.156862751,1],"metallicFactor":0},"doubleSided":true}],"meshes":[{"primitives":[{"attributes":{"NORMAL":0,"POSITION":1},"indices":2,"material":0}]}],"nodes":[{"mesh":0,"translation":[-0.0410000011,-0.157499999,0.0225000009],"scale":[5.00518854e-06,5.00518854e-06,5.00518854e-06]}],"scenes":[{"name":"Root","nodes":[0]}],"scene":0}