{"asset":{"version":"2.0","generator":"gltfpack 1.1"},"extensionsUsed":["KHR_mesh_quantization"],"extensionsRequired":["KHR_mesh_quantization"],"buffers":[{"uri":"gl_inet_ax18000.bin","byteLength":86616}],"bufferViews":[{"buffer":0,"byteOffset":0,"byteLength":18000,"byteStride":4,"target":34962},{"buffer":0,"byteOffset":18000,"byteLength":36000,"byteStride":8,"target":34962},{"buffer":0,"byteOffset":54000,"byteLength":32616,"target":34963}],"accessors":[{"bufferView":0,"byteOffset":0,"componentType":5120,"count":528,"type":"VEC3","normalized":true},{"bufferView":1,"byteOffset":0,"componentType":5123,"count":528,"type":"VEC3","min":[7161,509,1921],"max":[13243,2036,3550]},{"bufferView":2,"byteOffset":0,"componentType":5123,"count":1080,"type":"SCALAR"},{"bufferView":0,"byteOffset":2112,"componentType":5120,"count":176,"type":"VEC3","normalized":true},{"bufferView":1,"byteOffset":4224,"componentType":5123,"count":176,"type":"VEC3","min":[2974,509,1807],"max":[6219,2036,3563]},{"bufferView":2,"byteOffset":2160,"componentType":5123,"count":480,"type":"SCALAR"},{"bufferView":0,"byteOffset":2816,"componentType":5120,"count":24,"type":"VEC3","normalized":true},{"bufferView":1,"byteOffset":5632,"componentType":5123,"count":24,"type":"VEC3","min":[5659,509,1941],"max":[5837,2036,3340]},{"bufferView":2,"byteOffset":3120,"componentType":5123,"count":36,"type":"SCALAR"},{"bufferView":0,"byteOffset":2912,"componentType":5120,"count":266,"type":"VEC3","normalized":true},{"bufferView":1,"byteOffset":5824,"componentType":5123,"count":266,"type":"VEC3","min":[1787,509,0],"max":[14596,9480,3372]},{"bufferView":2,"byteOffset":3192,"componentType":5123,"count":714,"type":"SCALAR"},{"bufferView":0,"byteOffset":3976,"componentType":5120,"count":3506,"type":"VEC3","normalized":true},{"bufferView":1,"byteOffset":7952,"componentType":5123,"count":3506,"type":"VEC3","min":[0,0,25],"max":[16383,11578,4645]},{"bufferView":2,"byteOffset":4620,"componentType":5123,"count":13998,"type":"SCALAR"}],"materials":[{"name":"1.000000_1.000000_1.000000_0.000000_0.000000","pbrMetallicRoughness":{"metallicFactor":0},"doubleSided":true},{"name":"0.752941_1.000000_1.000000_0.000000_0.000000","pbrMetallicRoughness":{"baseColorFactor":[0.752941191,1,1,1],"metallicFactor":0},"doubleSided":true},{"name":"0.501961_0.501961_1.000000_0.000000_0.000000","pbrMetallicRoughness":{"baseColorFactor":[0.501960814,0.501960814,1,1],"metallicFactor":0},"doubleSided":true},{"name":"0.000000_0.000000_0.000000_0.000000_0.000000","pbrMetallicRoughness":{"baseColorFactor":[0,0,0,1],"metallicFactor":0},"doubleSided":true},{"name":"0.501961_0.501961_0.501961_0.000000_0.000000","pbrMetallicRoughness":{"baseColorFactor":[0.501960814,0.501960814,0.501960814,1],"metallicFactor":0},"doubleSided":true}],"meshes":[{"primitives":[{"attributes":{"NORMAL":0,"POSITION":1},"indices":2,"material":0},{"attributes":{"NORMAL":3,"POSITION":4},"indices":5,"material":1},{"attributes":{"NORMAL":6,"POSITION":7},"indices":8,"material":2},{"attributes":{"NORMAL":9,"POSITION":10},"indices":11,"material":3},{"attributes":{"NORMAL":12,"POSITION":13},"indices":14,"material":4}]}],"nodes":[{"mesh":0,"translation":[-0.0643749982,-0.0454999991,-0.0195000004],"scale":[7.85875545e-06,7.85875545e-06,7.85875545e-06]}],"scenes":[{"name":"Root","nodes":[0]}],"scene":0}