{"asset":{"version":"2.0","generator":"gltfpack 1.1"},"extensionsUsed":["KHR_mesh_quantization"],"extensionsRequired":["KHR_mesh_quantization"],"buffers":[{"uri":"mucka_target_40.bin","byteLength":38292}],"bufferViews":[{"buffer":0,"byteOffset":0,"byteLength":8472,"byteStride":4,"target":34962},{"buffer":0,"byteOffset":8472,"byteLength":16944,"byteStride":8,"target":34962},{"buffer":0,"byteOffset":25416,"byteLength":12876,"target":34963}],"accessors":[{"bufferView":0,"byteOffset":0,"componentType":5120,"count":2118,"type":"VEC3","normalized":true},{"bufferView":1,"byteOffset":0,"componentType":5123,"count":2118,"type":"VEC3","min":[0,0,0],"max":[16383,5461,1335]},{"bufferView":2,"byteOffset":0,"componentType":5123,"count":6438,"type":"SCALAR"}],"materials":[{"name":"0.262745_0.282353_0.301961_0.000000_0.000000","pbrMetallicRoughness":{"baseColorFactor":[0.262745112,0.282352954,0.301960796,1],"metallicFactor":0},"doubleSided":true}],"meshes":[{"primitives":[{"attributes":{"NORMAL":0,"POSITION":1},"indices":2,"material":0}]}],"nodes":[{"mesh":0,"translation":[-0.0675000027,-0.0225000009,-3.03576608e-18],"scale":[8.24024937e-06,8.24024937e-06,8.24024937e-06]}],"scenes":[{"name":"Root","nodes":[0]}],"scene":0}