{"asset":{"version":"2.0","generator":"gltfpack 1.1"},"extensionsUsed":["KHR_mesh_quantization"],"extensionsRequired":["KHR_mesh_quantization"],"buffers":[{"uri":"router_bracket.bin","byteLength":11076}],"bufferViews":[{"buffer":0,"byteOffset":0,"byteLength":2504,"byteStride":4,"target":34962},{"buffer":0,"byteOffset":2504,"byteLength":5008,"byteStride":8,"target":34962},{"buffer":0,"byteOffset":7512,"byteLength":3564,"target":34963}],"accessors":[{"bufferView":0,"byteOffset":0,"componentType":5120,"count":626,"type":"VEC3","normalized":true},{"bufferView":1,"byteOffset":0,"componentType":5123,"count":626,"type":"VEC3","min":[0,0,0],"max":[16383,15621,8368]},{"bufferView":2,"byteOffset":0,"componentType":5123,"count":1782,"type":"SCALAR"}],"materials":[{"name":"0.156863_0.156863_0.156863_0.000000_0.000000","pbrMetallicRoughness":{"baseColorFactor":[0.156862751,0.156862751,0.156862751,1],"metallicFactor":0},"doubleSided":true}],"meshes":[{"primitives":[{"attributes":{"NORMAL":0,"POSITION":1},"indices":2,"material":0}]}],"nodes":[{"mesh":0,"translation":[-0.0520000011,-0.0502975099,-0.0320000015],"scale":[6.43960175e-06,6.43960175e-06,6.43960175e-06]}],"scenes":[{"name":"Root","nodes":[0]}],"scene":0}